<?xml version="1.0" encoding="utf-8"?>
<!-- Generator: Adobe Illustrator 27.5.0, SVG Export Plug-In . SVG Version: 6.00 Build 0)  -->
 <svg
        version="1.1"
        id="Warstwa_1"
        xmlns="http://www.w3.org/2000/svg"
        x="0px"
        y="0px"
        viewBox="0 0 595.28 841.89"
        className="svg"
      >
	  <style type="text/css">
	.st0{fill:#528498;}
	.st1{fill:#7CCEEE;}
</style>
        <g>
          <path
            class="st0"
            d="M214.94,537.99v4.92c0,2.08,1.76,3.73,3.84,3.6l176.94-11.66c1.89-0.12,3.37-1.7,3.37-3.6v-4.92
		c0-2.08-1.76-3.73-3.84-3.6L218.31,534.4C216.41,534.52,214.94,536.1,214.94,537.99z"
          />
          <path
            class="st0"
            d="M214.94,564v4.92c0,2.08,1.76,3.73,3.84,3.6l176.94-11.66c1.89-0.12,3.37-1.7,3.37-3.6v-4.92
		c0-2.08-1.76-3.73-3.84-3.6l-176.94,11.66C216.41,560.53,214.94,562.11,214.94,564z"
          />
          <path
            class="st0"
            d="M224.15,590.02v3.7c0,2.08,1.76,3.73,3.84,3.6l158.52-10.45c1.89-0.12,3.37-1.7,3.37-3.6v-3.7
		c0-2.08-1.76-3.73-3.84-3.6l-158.52,10.45C225.62,586.55,224.15,588.12,224.15,590.02z"
          />
          <path
            class="st0"
            d="M233.36,616.03v2.49c0,2.08,1.76,3.73,3.84,3.6l140.11-9.24c1.89-0.12,3.37-1.7,3.37-3.6v-2.49
		c0-2.08-1.76-3.73-3.84-3.6l-140.11,9.24C234.83,612.56,233.36,614.13,233.36,616.03z"
          />
        </g>
        <path
          class="st0"
          d="M253.56,643.63l6.92,23.48c0.45,1.53,1.86,2.58,3.46,2.58h86.16c1.6,0,3-1.05,3.46-2.58l8.9-30.2
	c0.71-2.4-1.19-4.78-3.69-4.61l-101.98,6.72C254.48,639.17,252.91,641.42,253.56,643.63z"
        />
        {/* UP */}
        <g id="bulbUp">
          <path
            class="st1"
            d="M304.12,114.74c-111.77,1.56-201.97,94.55-200.29,206.32c1.1,72.94,40.64,136.56,99.26,171.51
	c3.64,2.17,8.27-0.51,8.27-4.76v-0.18c0-2.54-1.35-4.87-3.52-6.19c-56.33-34.24-93.58-96.77-92-167.87
	c2.27-102.35,140.4-62.43,242.77-63.86c106.86-1.49,139.63-38.31,139.63,68.21c0,71.8-39.58,134.35-98.1,167.04
	c-2.3,1.29-3.76,3.69-3.76,6.33v0.12c0,4.16,4.45,6.85,8.1,4.85c63.02-34.51,105.75-101.43,105.75-178.34
	C510.22,204.73,417.67,113.16,304.12,114.74z"
          />
        </g>
      </svg>
